<?xml version="1.0" encoding="utf-8"?>
<!-- Generator: Adobe Illustrator 16.0.3, SVG Export Plug-In . SVG Version: 6.00 Build 0)  -->
<!DOCTYPE svg PUBLIC "-//W3C//DTD SVG 1.1//EN" "http://www.w3.org/Graphics/SVG/1.1/DTD/svg11.dtd">
<svg version="1.1" xmlns="http://www.w3.org/2000/svg" xmlns:xlink="http://www.w3.org/1999/xlink" x="0px" y="0px" width="24px"
	 height="24px" viewBox="0 0 24 24" enable-background="new 0 0 24 24" xml:space="preserve">
<g id="Outline_Icons_1_">
	<g id="Outline_Icons">
		<g>
			<path d="M9.501,9.511c0.095-0.013,0.25-0.01,0.362-0.01L10,9.502l0.137-0.001c0.112,0.001,0.269-0.003,0.363,0.01
				c0.004,0.271,0.227,0.491,0.5,0.491c0.276,0,0.5-0.224,0.5-0.5c0-0.298-0.089-0.538-0.266-0.713
				c-0.296-0.294-0.709-0.287-1.105-0.288L10,8.502L9.871,8.501C9.479,8.503,9.063,8.495,8.766,8.789
				C8.59,8.964,8.5,9.204,8.5,9.502c0,0.276,0.226,0.473,0.502,0.473C9.257,9.975,9.47,9.761,9.501,9.511z"/>
			<path d="M13.003,9.975c0.254,0,0.467-0.214,0.498-0.464c0.095-0.013,0.25-0.01,0.362-0.01L14,9.502l0.137-0.001
				c0.113,0.001,0.269-0.003,0.363,0.01c0.004,0.271,0.227,0.491,0.5,0.491c0.276,0,0.5-0.224,0.5-0.5
				c0-0.298-0.089-0.538-0.266-0.713c-0.296-0.294-0.711-0.287-1.105-0.288L14,8.502l-0.129-0.001
				c-0.393,0.002-0.808-0.006-1.105,0.288C12.59,8.964,12.5,9.204,12.5,9.502C12.5,9.778,12.727,9.975,13.003,9.975z"/>
			<path d="M16.741,15.314c-0.323-0.044-0.656-0.098-0.985-0.146c0.894-0.839,1.604-1.937,1.732-3.242
				c0.591-0.186,1.068-0.716,1.299-1.474c0.202-0.664,0.176-1.482-0.266-1.996l0.477-2.906c0.008-0.08,0.183-1.977-1.239-3.55
				C16.559,0.673,14.625,0,12.008,0S7.457,0.673,6.255,2.001c-1.423,1.572-1.252,3.469-1.24,3.58l0.46,2.803
				c-0.03,0.034-0.063,0.062-0.09,0.101c-0.199,0.284-0.304,0.66-0.304,1.088c0,1.001,0.565,2.062,1.448,2.352
				c0.127,1.307,0.837,2.404,1.731,3.245c-0.307,0.044-0.615,0.094-0.919,0.135C3.732,15.792,0,16.298,0,20.245V23.5
				C0,23.776,0.224,24,0.5,24h23c0.276,0,0.5-0.224,0.5-0.5v-3.255C24,16.302,20.474,15.822,16.741,15.314z M17.651,16.453
				L18.742,19H17c-0.173,0-0.334,0.09-0.425,0.237s-0.1,0.331-0.022,0.486L18.191,23h-3.546l1.729-6.729
				c0.076,0.011,0.156,0.024,0.231,0.034C16.969,16.354,17.314,16.403,17.651,16.453z M10.389,23l-0.252-0.982L12,19.781
				l1.864,2.237L13.613,23H10.389z M11,16.813C11.381,16.935,11.729,17,12.008,17c0.276,0,0.618-0.064,0.992-0.182V17.5
				c0,0.552-0.449,1-1,1s-1-0.448-1-1V16.813z M15.379,16.125l-1.208,4.699l-1.284-1.541C13.544,18.955,14,18.282,14,17.5v-1.098
				c0.22-0.112,0.443-0.24,0.665-0.383C14.905,16.059,15.141,16.09,15.379,16.125z M6.996,2.672C8,1.562,9.687,1,12.008,1
				c2.313,0,3.995,0.559,4.998,1.659c1.121,1.23,1,2.76,1,2.76h0l-0.259,1.579C10.287,6.973,9.5,6.283,9.5,3.5
				C9.5,3.224,9.277,3,9,3S8.5,3.224,8.5,3.5c0,1.249-0.781,3.934-2.089,4.417L6.006,5.45C6.004,5.436,5.867,3.919,6.996,2.672z
				 M7.508,11.5c0-0.276-0.224-0.5-0.5-0.5c-0.522,0-0.927-0.768-0.927-1.428c0-0.215,0.045-0.402,0.124-0.515
				c0.032-0.045,0.089-0.082,0.171-0.104C7.68,8.728,8.543,7.367,9.023,5.98c1.016,1.746,3.609,2.001,8.56,2.018l-0.092,0.559
				c-0.033,0.199,0.059,0.387,0.215,0.493l-0.001,0.002c0.211,0.143,0.267,0.64,0.124,1.109C17.712,10.549,17.426,11,17.008,11
				c-0.276,0-0.5,0.224-0.5,0.5c0,2.6-3.158,4.5-4.5,4.5S7.508,14.1,7.508,11.5z M10,16.395V17.5c0,0.782,0.456,1.455,1.113,1.783
				l-1.283,1.539l-1.204-4.697c0.242-0.035,0.483-0.066,0.724-0.106C9.567,16.158,9.785,16.283,10,16.395z M7.476,16.294
				c0.052-0.007,0.104-0.016,0.157-0.022L9.356,23H5.81l1.638-3.276c0.078-0.155,0.069-0.339-0.022-0.486S7.174,19,7,19H5.259
				l1.091-2.546C6.711,16.4,7.084,16.348,7.476,16.294z M1,20.245c0-2.315,1.545-3.099,4.177-3.595l-1.137,2.652
				c-0.066,0.155-0.05,0.332,0.042,0.473C4.176,19.916,4.333,20,4.5,20h1.691l-1.5,3H1V20.245z M23,23H19.31l-1.5-3H19.5
				c0.168,0,0.325-0.084,0.417-0.225c0.092-0.141,0.108-0.317,0.042-0.473l-1.138-2.654C21.454,17.141,23,17.917,23,20.245V23z"/>
		</g>
	</g>
	<g id="New_icons_1_">
	</g>
</g>
<g id="Invisible_Shape">
	<rect fill="none" width="24" height="24"/>
</g>
</svg>
