<?xml version="1.0" encoding="utf-8"?>
<!-- Generator: Adobe Illustrator 16.0.3, SVG Export Plug-In . SVG Version: 6.00 Build 0)  -->
<!DOCTYPE svg PUBLIC "-//W3C//DTD SVG 1.1//EN" "http://www.w3.org/Graphics/SVG/1.1/DTD/svg11.dtd">
<svg version="1.1" xmlns="http://www.w3.org/2000/svg" xmlns:xlink="http://www.w3.org/1999/xlink" x="0px" y="0px" width="24px"
	 height="24px" viewBox="0 0 24 24" enable-background="new 0 0 24 24" xml:space="preserve">
<g id="Outline_Icons_1_">
	<g id="Outline_Icons">
		<g>
			<path d="M3.448,11l10.788-0.004C15.538,10.832,18,9.77,18,6.928c0-2.19-1.792-3.982-4.026-4.064C12.983,1.114,11.065,0,9,0
				C6.188,0,3.826,2.001,3.4,4.645C1.582,4.563,0,5.993,0,7.82C0,10.33,2.168,11,3.448,11z M3.743,5.689
				c0.289,0.061,0.579-0.151,0.598-0.46C4.485,2.857,6.532,1,9,1c1.795,0,3.453,1.014,4.223,2.584
				c0.126,0.252,0.336,0.282,0.591,0.276C15.57,3.86,17,5.236,17,6.928c0,2.664-2.772,3.061-2.826,3.072H3.448
				C3.198,10,1,9.938,1,7.82C1,6.459,2.303,5.399,3.743,5.689z"/>
			<path d="M0.5,24h17c0.276,0,0.5-0.224,0.5-0.5v-5v-5c0-0.276-0.224-0.5-0.5-0.5h-17C0.224,13,0,13.224,0,13.5v5v5
				C0,23.776,0.224,24,0.5,24z M17,23H1v-4h16V23z M1,14h16v4H1V14z"/>
			<path d="M4,14.5c-0.827,0-1.5,0.673-1.5,1.5s0.673,1.5,1.5,1.5s1.5-0.673,1.5-1.5S4.827,14.5,4,14.5z M4,16.5
				c-0.275,0-0.5-0.225-0.5-0.5s0.225-0.5,0.5-0.5s0.5,0.225,0.5,0.5S4.275,16.5,4,16.5z"/>
			<circle cx="14" cy="16" r="1"/>
			<circle cx="11" cy="16" r="1"/>
			<path d="M4,22.5c0.827,0,1.5-0.673,1.5-1.5S4.827,19.5,4,19.5S2.5,20.173,2.5,21S3.173,22.5,4,22.5z M4,20.5
				c0.275,0,0.5,0.225,0.5,0.5S4.275,21.5,4,21.5S3.5,21.275,3.5,21S3.725,20.5,4,20.5z"/>
			<circle cx="14" cy="21" r="1"/>
			<circle cx="11" cy="21" r="1"/>
		</g>
	</g>
	<g id="New_icons_1_">
	</g>
</g>
<g id="Invisible_Shape">
	<rect fill="none" width="24" height="24"/>
</g>
</svg>
