<?xml version="1.0" encoding="utf-8"?>
<!-- Generator: Adobe Illustrator 16.0.3, SVG Export Plug-In . SVG Version: 6.00 Build 0)  -->
<!DOCTYPE svg PUBLIC "-//W3C//DTD SVG 1.1//EN" "http://www.w3.org/Graphics/SVG/1.1/DTD/svg11.dtd">
<svg version="1.1" xmlns="http://www.w3.org/2000/svg" xmlns:xlink="http://www.w3.org/1999/xlink" x="0px" y="0px" width="24px"
	 height="24px" viewBox="0 0 24 24" enable-background="new 0 0 24 24" xml:space="preserve">
<g id="Outline_Icons">
	<g>
		<path d="M21.5,0h-19C1.121,0,0,1.121,0,2.5v19C0,22.879,1.121,24,2.5,24h19c1.379,0,2.5-1.121,2.5-2.5v-19
			C24,1.121,22.879,0,21.5,0z M2.5,1h19C22.327,1,23,1.673,23,2.5V5H1V2.5C1,1.673,1.673,1,2.5,1z M21.5,23h-19
			C1.673,23,1,22.327,1,21.5V6h22v15.5C23,22.327,22.327,23,21.5,23z"/>
		<path d="M20.5,8h-7C13.224,8,13,8.224,13,8.5v5c0,0.276,0.224,0.5,0.5,0.5h7c0.276,0,0.5-0.224,0.5-0.5v-5
			C21,8.224,20.776,8,20.5,8z M20,13h-6V9h6V13z"/>
		<path d="M20.5,15h-7c-0.276,0-0.5,0.224-0.5,0.5v5c0,0.276,0.224,0.5,0.5,0.5h7c0.276,0,0.5-0.224,0.5-0.5v-5
			C21,15.224,20.776,15,20.5,15z M20,20h-6v-4h6V20z"/>
		<path d="M10.5,8h-7C3.224,8,3,8.224,3,8.5v8C3,16.776,3.224,17,3.5,17h1h5h0.02h0.98c0.276,0,0.5-0.224,0.5-0.5v-8
			C11,8.224,10.776,8,10.5,8z M4,9h6v7H9.955c-0.14-1.12-0.729-2.062-1.554-2.576C8.77,13.061,9,12.557,9,12c0-1.103-0.897-2-2-2
			s-2,0.897-2,2c0,0.557,0.23,1.061,0.6,1.424C4.774,13.938,4.183,14.879,4.043,16H4V9z M6,12c0-0.552,0.448-1,1-1s1,0.448,1,1
			s-0.448,1-1,1S6,12.552,6,12z M5.04,16c0.186-1.14,0.994-2,1.96-2s1.774,0.86,1.96,2H5.04z"/>
		<path d="M8,18H4c-0.276,0-0.5,0.224-0.5,0.5S3.724,19,4,19h4c0.276,0,0.5-0.224,0.5-0.5S8.276,18,8,18z"/>
		<path d="M8,20H4c-0.276,0-0.5,0.224-0.5,0.5S3.724,21,4,21h4c0.276,0,0.5-0.224,0.5-0.5S8.276,20,8,20z"/>
		<circle cx="4" cy="3" r="1"/>
		<circle cx="7" cy="3" r="1"/>
		<circle cx="10" cy="3" r="1"/>
	</g>
</g>
<g id="Invisible_Shape">
	<rect fill="none" width="24" height="24"/>
</g>
</svg>
