<?xml version="1.0" encoding="utf-8"?>
<!-- Generator: Adobe Illustrator 16.0.3, SVG Export Plug-In . SVG Version: 6.00 Build 0)  -->
<!DOCTYPE svg PUBLIC "-//W3C//DTD SVG 1.1//EN" "http://www.w3.org/Graphics/SVG/1.1/DTD/svg11.dtd">
<svg version="1.1" xmlns="http://www.w3.org/2000/svg" xmlns:xlink="http://www.w3.org/1999/xlink" x="0px" y="0px" width="24px"
	 height="24px" viewBox="0 0 24 24" enable-background="new 0 0 24 24" xml:space="preserve">
<g id="Outline_Icons_1_">
	<g id="Outline_Icons">
		<g>
			<path d="M23.695,18.768l-0.763-0.439c0.09-0.562,0.09-1.093,0-1.655l0.765-0.441c0.235-0.136,0.323-0.438,0.183-0.683l-1.5-2.598
				c-0.138-0.24-0.444-0.321-0.683-0.183l-0.775,0.447c-0.427-0.34-0.902-0.612-1.422-0.815v-0.9c0-0.276-0.224-0.5-0.5-0.5h-3
				c-0.276,0-0.5,0.224-0.5,0.5v0.9c-0.52,0.203-0.995,0.476-1.422,0.815l-0.775-0.447c-0.238-0.138-0.545-0.057-0.683,0.183
				l-1.5,2.598c-0.141,0.244-0.053,0.547,0.183,0.683l0.765,0.441c-0.09,0.562-0.09,1.094,0,1.655l-0.763,0.439
				c-0.237,0.138-0.323,0.44-0.183,0.684l1.5,2.598c0.137,0.239,0.442,0.318,0.683,0.184l0.773-0.446
				c0.427,0.34,0.903,0.612,1.422,0.814V23.5c0,0.276,0.224,0.5,0.5,0.5h3c0.276,0,0.5-0.224,0.5-0.5v-0.899
				c0.519-0.202,0.995-0.475,1.422-0.814l0.773,0.446c0.24,0.137,0.546,0.057,0.683-0.184l1.5-2.598
				C24.019,19.208,23.933,18.905,23.695,18.768z M21.887,18.476c-0.047,0.213,0.05,0.433,0.238,0.542l0.637,0.367l-1,1.731
				l-0.646-0.373c-0.188-0.108-0.427-0.082-0.588,0.064c-0.477,0.437-1.042,0.761-1.68,0.963c-0.207,0.065-0.349,0.259-0.349,0.477
				V23h-2v-0.753c0-0.218-0.142-0.411-0.349-0.477c-0.638-0.202-1.203-0.526-1.68-0.963c-0.161-0.146-0.399-0.173-0.588-0.064
				l-0.646,0.373l-1-1.731l0.637-0.367c0.188-0.109,0.285-0.329,0.238-0.542c-0.151-0.683-0.151-1.266,0-1.949
				c0.047-0.213-0.049-0.433-0.238-0.541l-0.64-0.369l1-1.732l0.648,0.374c0.188,0.108,0.427,0.083,0.588-0.063
				c0.477-0.437,1.041-0.761,1.68-0.964c0.208-0.066,0.349-0.259,0.349-0.477V12h2v0.754c0,0.218,0.141,0.41,0.349,0.477
				c0.639,0.203,1.203,0.527,1.68,0.964c0.161,0.146,0.399,0.172,0.588,0.063l0.648-0.374l1,1.732l-0.64,0.369
				c-0.189,0.108-0.285,0.328-0.238,0.541C22.038,17.21,22.038,17.793,21.887,18.476z"/>
			<path d="M17.5,15c-1.379,0-2.5,1.121-2.5,2.5s1.121,2.5,2.5,2.5s2.5-1.121,2.5-2.5S18.879,15,17.5,15z M17.5,19
				c-0.827,0-1.5-0.673-1.5-1.5s0.673-1.5,1.5-1.5s1.5,0.673,1.5,1.5S18.327,19,17.5,19z"/>
			<path d="M10,13c0.276,0,0.5-0.224,0.5-0.5S10.276,12,10,12c-5.304,0-9-1.845-9-3.5V6.482C2.603,7.984,5.985,9,10,9
				c4.016,0,7.397-1.016,9-2.518V9.5c0,0.276,0.224,0.5,0.5,0.5S20,9.776,20,9.5v-5C20,1.977,15.607,0,10,0S0,1.977,0,4.5v13
				C0,20.023,4.393,22,10,22c0.276,0,0.5-0.224,0.5-0.5S10.276,21,10,21c-5.304,0-9-1.845-9-3.5v-2.518
				c1.603,1.502,4.985,2.518,9,2.518c0.276,0,0.5-0.224,0.5-0.5s-0.224-0.5-0.5-0.5c-5.304,0-9-1.845-9-3.5v-2.518
				C2.603,11.984,5.985,13,10,13z M10,1c5.304,0,9,1.845,9,3.5S15.304,8,10,8S1,6.155,1,4.5S4.696,1,10,1z"/>
		</g>
	</g>
	<g id="New_icons_1_">
	</g>
</g>
<g id="Invisible_Shape">
	<rect fill="none" width="24" height="24"/>
</g>
</svg>
